<?xml version="1.0" standalone="no"?>
<svg xmlns:xlink="http://www.w3.org/1999/xlink" id="barcode" width="422px" height="166px" x="0px" y="0px" viewBox="0 0 422 166" xmlns="http://www.w3.org/2000/svg" version="1.1" style="transform: translate(0px, 0px); background: rgb(255, 255, 255);"><g transform="translate(10, 10)" style="fill:#000000;"><rect x="0" y="0" width="6" height="100"/><rect x="9" y="0" width="3" height="100"/><rect x="18" y="0" width="3" height="100"/><rect x="33" y="0" width="3" height="100"/><rect x="39" y="0" width="6" height="100"/><rect x="48" y="0" width="9" height="100"/><rect x="66" y="0" width="3" height="100"/><rect x="72" y="0" width="12" height="100"/><rect x="90" y="0" width="3" height="100"/><rect x="99" y="0" width="3" height="100"/><rect x="111" y="0" width="3" height="100"/><rect x="117" y="0" width="6" height="100"/><rect x="132" y="0" width="3" height="100"/><rect x="141" y="0" width="3" height="100"/><rect x="147" y="0" width="6" height="100"/><rect x="165" y="0" width="3" height="100"/><rect x="174" y="0" width="3" height="100"/><rect x="183" y="0" width="12" height="100"/><rect x="198" y="0" width="3" height="100"/><rect x="213" y="0" width="3" height="100"/><rect x="219" y="0" width="6" height="100"/><rect x="231" y="0" width="3" height="100"/><rect x="243" y="0" width="12" height="100"/><rect x="258" y="0" width="3" height="100"/><rect x="264" y="0" width="3" height="100"/><rect x="279" y="0" width="3" height="100"/><rect x="288" y="0" width="6" height="100"/><rect x="297" y="0" width="3" height="100"/><rect x="303" y="0" width="6" height="100"/><rect x="315" y="0" width="3" height="100"/><rect x="330" y="0" width="6" height="100"/><rect x="345" y="0" width="3" height="100"/><rect x="354" y="0" width="3" height="100"/><rect x="363" y="0" width="6" height="100"/><rect x="378" y="0" width="9" height="100"/><rect x="390" y="0" width="3" height="100"/><rect x="396" y="0" width="6" height="100"/><text style="font: 46px monospace" text-anchor="middle" x="201" y="146">JsBarcode</text></g></svg>